<?xml version="1.0" encoding="utf-8"?>
<!-- Generator: Adobe Illustrator 21.1.0, SVG Export Plug-In . SVG Version: 6.00 Build 0)  -->
<svg version="1.1" id="Layer_1" xmlns="http://www.w3.org/2000/svg" xmlns:xlink="http://www.w3.org/1999/xlink" x="0px" y="0px"
	 viewBox="0 0 612.4 113.6" style="enable-background:new 0 0 612.4 113.6;" xml:space="preserve">
<style type="text/css">
	.st0{fill:#EF404A;}
	.st1{fill:#48535B;}
</style>
<g>
	<path class="st0" d="M90.3,102.3V31.9h19.3v54.2h31.8v16.2H90.3z M150.7,102.3V31.9H170v70.4H150.7z M226.4,96
		c-5,4.5-10.8,7.5-18,7.5c-15,0-27.8-11.8-27.8-36.2c0-24.7,12.4-36.4,30.1-36.4c12.3,0,22.6,4.8,32.7,10.2l-8.7,14.1
		c-8.2-4.2-15.3-7-21.5-7c-8.6,0-12.9,7.6-12.9,19c0,11.5,3.6,20,12.6,20c5.5,0,10.8-4.3,13.5-6.7v-4.7h-14.8v-15h32.5v41.6h-17.7
		V96z M324.6,67.1c0,20.2-10.2,36.3-35.2,36.3c-25.1,0-35.3-16.1-35.3-36.3c0-20.2,10.2-36.3,35.3-36.3
		C314.5,30.8,324.6,46.9,324.6,67.1z M304.9,67.1c0-11.7-4.2-19.9-15.5-19.9c-11.3,0-15.6,8.2-15.6,19.9c0,11.7,4.3,20,15.6,20
		C300.7,87.1,304.9,78.8,304.9,67.1z M33.2,8.9L0,105.6h4.5L37.7,8.9H33.2z M45.2,0L6.4,113.2h4.5L49.7,0H45.2z M43.6,44.1L51,70.3
		l4.5,16.3l4.4,15.7h22.6L53.1,16.5v0h-4.5l-29.4,85.9h4.5L43.6,44.1z"/>
	<path class="st1" d="M418.7,62h-6.6V39.3h6.6c6.4,0,10.5,3.2,10.5,11.3S425.1,62,418.7,62z M418.7,41.1h-4.5v19h4.5
		c5.8,0,8.3-3,8.3-9.5C427,44.2,424.4,41.1,418.7,41.1z M435.4,54c0.2,4,2.3,6.6,5.2,6.6c2.5,0,5-1.5,6.4-2.4l1.1,1.4
		c-1.7,1-4.3,2.7-7.5,2.7c-3.9,0-7.3-3-7.3-8.9c0-5.8,3.3-8.8,7.7-8.8c4.6,0,7,3.1,7,7.3c0,1.2-0.2,2.1-0.2,2.1H435.4z M435.4,52.6
		h10.5c0.1-4.4-1.8-6.3-5-6.3C437.7,46.3,435.7,48.8,435.4,52.6z M451,45h2.4v-2.8c0-3,1.6-3.8,3.5-3.8c1.5,0,3.9,0.7,4.8,1
		l-0.8,1.5c-0.7-0.2-2.9-0.8-3.8-0.8c-1,0-1.7,0.4-1.7,1.8v3h4.7v1.6h-4.7V62h-2V46.6H451V45z M464.4,54c0.2,4,2.3,6.6,5.2,6.6
		c2.5,0,5-1.5,6.4-2.4l1.1,1.4c-1.7,1-4.3,2.7-7.5,2.7c-3.9,0-7.3-3-7.3-8.9c0-5.8,3.3-8.8,7.7-8.8c4.6,0,7,3.1,7,7.3
		c0,1.2-0.2,2.1-0.2,2.1H464.4z M464.4,52.6h10.5c0.1-4.4-1.8-6.3-5-6.3C466.7,46.3,464.7,48.8,464.4,52.6z M483.8,47.5
		c1.2-0.9,4.2-2.9,7.2-2.9c3.7,0,4.7,2.5,4.7,5.2V62h-2V50.1c0-2.1-0.6-3.8-3.2-3.8c-2.6,0-5.6,2-6.7,3V62h-2V45h2V47.5z
		 M513.2,57.7c0,3.2-2.9,4.6-6,4.6c-2.8,0-5.6-1.1-7.2-2l0.9-1.5c1.6,0.9,4.1,1.9,6.2,1.9c1.9,0,4.1-0.9,4.1-2.9
		c0-2.3-3-3.1-5.1-3.7c-2.6-0.7-5.7-1.7-5.7-5c0-2.9,2.5-4.5,5.8-4.5c2.5,0,4.8,0.9,6.4,1.7l-0.9,1.5c-1.6-0.8-3.6-1.5-5.4-1.5
		c-2.1,0-3.8,1-3.8,2.7c0,2.3,2.9,2.9,4.7,3.4C511,53.5,513.2,54.9,513.2,57.7z M524.4,62.3c-5.1,0-7.7-3.4-7.7-8.8s2.7-8.9,7.7-8.9
		c5,0,7.7,3.4,7.7,8.9S529.5,62.3,524.4,62.3z M524.4,46.3c-4,0-5.6,2.9-5.6,7.2c0,4.3,1.7,7.1,5.6,7.1c4,0,5.7-2.8,5.7-7.1
		C530.1,49.2,528.4,46.3,524.4,46.3z M539,48.6c0.2-0.5,1.9-4.2,6.5-3.9v1.9c-5.8,0-6.5,5.3-6.5,5.3V62h-2V45h2V48.6z M549.7,54
		c0.2,4,2.3,6.6,5.2,6.6c2.5,0,5-1.5,6.4-2.4l1.1,1.4c-1.7,1-4.3,2.7-7.5,2.7c-3.9,0-7.3-3-7.3-8.9c0-5.8,3.3-8.8,7.7-8.8
		c4.6,0,7,3.1,7,7.3c0,1.2-0.2,2.1-0.2,2.1H549.7z M549.7,52.6h10.5c0.1-4.4-1.8-6.3-5-6.3C552,46.3,549.9,48.8,549.7,52.6z
		 M579,57.7c0,3.2-2.9,4.6-6,4.6c-2.8,0-5.6-1.1-7.2-2l0.9-1.5c1.6,0.9,4.1,1.9,6.2,1.9c1.9,0,4.1-0.9,4.1-2.9c0-2.3-3-3.1-5.1-3.7
		c-2.6-0.7-5.7-1.7-5.7-5c0-2.9,2.5-4.5,5.8-4.5c2.5,0,4.8,0.9,6.4,1.7l-0.9,1.5c-1.6-0.8-3.6-1.5-5.4-1.5c-2.1,0-3.8,1-3.8,2.7
		c0,2.3,2.9,2.9,4.7,3.4C576.8,53.5,579,54.9,579,57.7z M411,94.4V71.7h5.5v22.7H411z M425.8,79.3c1.6-1,3.8-2.3,6.4-2.3
		c3.7,0,5.2,2.1,5.2,5.4v12h-5.3V83.7c0-1.5-0.4-2.5-2-2.5c-1.6,0-3.3,1-4.3,2v11.3h-5.3v-17h5.3V79.3z M439.8,77.4h2.3V77
		c0-4.2,1.7-6.2,5.3-6.2c2.3,0,4.8,0.9,6,1.4l-1.7,3.8c-0.5-0.2-2.1-0.6-2.8-0.6c-0.6,0-1.4,0.1-1.4,1.6v0.5h4.1v3.9h-4.1v13.1h-5.3
		V81.3h-2.3V77.4z M461.8,94.8c-5.8,0-9.1-3.2-9.1-8.9c0-5.6,3.2-8.8,9.1-8.8c5.8,0,9.1,3.3,9.1,8.9
		C470.9,91.5,467.7,94.8,461.8,94.8z M461.8,81.1c-2.6,0-3.7,1.8-3.7,4.8s1.1,4.8,3.7,4.8c2.6,0,3.7-1.7,3.7-4.8
		C465.5,82.9,464.4,81.1,461.8,81.1z M479,80.9c0.4-1,2-4,6.3-3.7v5c-5.7,0-6.3,5.5-6.3,5.5v6.7h-5.3v-17h5.3V80.9z M493,79.4
		c1.2-1.1,3.4-2.4,5.7-2.4c2.7,0,4.1,1.2,4.7,2.8c1.1-1.1,3.5-2.8,6.1-2.8c3.7,0,5.1,2.1,5.1,5.4v12h-5.3V83.7
		c0-1.4-0.3-2.5-1.8-2.5c-1.4,0-2.9,1.1-3.7,2v11.2h-5.3V83.7c0-1.4-0.3-2.5-1.8-2.5c-1.3,0-2.8,1-3.6,2v11.3h-5.3v-17h5.3V79.4z
		 M528.8,92.5c-1.3,1.2-3.2,2.3-5.9,2.3c-3.5,0-6-2.3-6-5.6c0-3.5,2.7-5.5,6.4-5.5c1.9,0,4.3,0.5,5.5,0.8v-1.1
		c0-1.7-0.7-2.3-2.8-2.3c-1.7,0-3.5,0.4-6.2,1.2l-1.6-3.6c3.4-1.1,6.3-1.6,8.8-1.6c5,0,7.2,1.8,7.2,6.6v10.7h-5.3V92.5z M528.8,89
		v-2c-0.9-0.2-2.5-0.5-3.7-0.5c-1.8,0-2.7,0.8-2.7,2.2s0.9,2,2.3,2C526.1,90.7,527.5,90.2,528.8,89z M522.6,75.3l4.1-4.5h5.9
		l-5.6,4.5H522.6z M536.4,77.4h2.3v-4.3l5.3-0.6v4.9h4.6v3.9H544v7.3c0,1.4,0.8,1.6,1.4,1.6c0.8,0,2.1-0.6,2.5-0.7l1.8,3.9
		c-1.2,0.5-3.4,1.4-5.8,1.4c-3.6,0-5.3-2-5.3-6.2v-7.3h-2.3V77.4z M551.5,70.9h5.6v4.3h-5.6V70.9z M551.6,94.4v-17h5.3v17H551.6z
		 M573.2,83c-1.2-0.6-3.1-1.4-4.6-1.4c-2.1,0-3.3,1.7-3.3,4.3c0,2.6,1.2,4.3,3.3,4.3c1.5,0,3.4-0.9,4.6-1.4l2.1,3.9
		c-1.6,0.7-4.6,2-7.6,2c-4.1,0-7.9-2.7-7.9-8.9c0-6.2,3.8-8.8,7.8-8.8c3,0,6,1.3,7.6,2L573.2,83z M585.5,94.8
		c-5.8,0-9.1-3.2-9.1-8.9c0-5.6,3.2-8.8,9.1-8.8c5.8,0,9.1,3.3,9.1,8.9C594.6,91.5,591.4,94.8,585.5,94.8z M585.5,81.1
		c-2.6,0-3.7,1.8-3.7,4.8s1.1,4.8,3.7,4.8c2.6,0,3.7-1.7,3.7-4.8C589.2,82.9,588.1,81.1,585.5,81.1z M612.4,89.5
		c0,3.2-2.6,5.2-7.1,5.2c-3.4,0-7.1-1.2-9-2.2l2-3.7c1.8,0.8,5,1.9,6.8,1.9c1,0,1.9-0.3,1.9-1c0-1.1-2.7-1.5-4.5-2
		c-2.8-0.7-5.9-2.1-5.9-5.5c0-3,2.4-5.2,6.8-5.2c3,0,6.3,1,8.2,1.9l-2,3.5c-1.6-0.6-4.1-1.3-5.8-1.3c-1.2,0-1.8,0.4-1.8,1
		c0,1.1,2.2,1.4,4.4,1.9C609.3,84.6,612.4,86,612.4,89.5z"/>
	<g>
		
			<rect x="316.1" y="59.7" transform="matrix(0.3244 -0.9459 0.9459 0.3244 193.1183 392.4323)" class="st1" width="110.3" height="2.7"/>
	</g>
</g>
</svg>
